@startuml

title UML-діаграма розгортання ПП

left to right direction

skinparam componentStyle uml1https://www.planttext.com/images/account-login-2x.png

node "<<Desktop>>" as dk {
    node "<<Operating System Windows/Linux>>" {
        node "<<Web Browser>>" {
            component [*.js]
            component [html]
        }
    }
}

interface Keyboard

interface Mouse

Keyboard -- dk

Mouse -- dk

node "<<Web Server>>" as serv1 {
	node "<<Operating System Windows/Linux>>" as l1 {
	    node "<<Application Server Node.js>>" {
		    component [asp.net core]
		}
	}
}

dk -- serv1

node "<<SQL Server>>" as serv2 {
	node "<<Operating System Linux>>" as l2 {
	    node "<<Database Server MSSSQL Server>>" {
		    database JSON
		}
	}
}

serv1 -- serv2

@enduml
